<svg width="150" height="150" viewBox="0 0 150 150" fill="none" xmlns="http://www.w3.org/2000/svg">
<path d="M44.0999 57.6769C46.0582 57.4406 47.9976 57.0622 49.9488 56.7629C52.8919 56.2406 55.8943 56.1389 58.866 56.461C59.1588 56.5482 59.4362 56.6804 59.6883 56.8528C55.9415 57.7359 52.456 59.4911 49.5156 61.9756C49.8975 61.8866 50.257 61.7198 50.5716 61.4858C52.7989 59.9367 55.2478 58.7338 57.8352 57.9178C59.2668 57.4523 60.339 57.5583 61.3339 58.8633C62.3971 60.259 62.6344 60.9681 61.8938 62.6065C61.6988 63.0388 61.4238 63.4351 61.244 63.8719C59.9022 67.119 58.3996 70.3158 57.3148 73.6483C56.802 75.5069 56.6109 77.4394 56.7495 79.3624C56.8192 82.1312 57.0986 84.8907 57.5853 87.6173C58.2531 91.1717 59.4241 94.6274 59.327 98.3122C59.3903 98.8503 59.2611 99.3935 58.9624 99.8457C58.6637 100.298 58.2148 100.63 57.695 100.783C57.1205 100.981 56.5955 101.301 56.1554 101.72C55.8193 101.987 55.5742 102.352 55.4538 102.764C55.3334 103.176 55.3437 103.616 55.4832 104.022C55.8013 104.838 56.5185 104.972 57.3283 104.957C58.1704 104.942 59.0161 105.092 59.8582 105.07C61.2189 105.036 62.6551 105.632 63.8935 104.584C64.4552 105.961 65.1059 106.207 66.8593 105.897C67.4417 105.761 68.0489 105.775 68.6244 105.937C68.9663 106.12 69.355 106.196 69.7405 106.156C70.1261 106.116 70.491 105.962 70.7886 105.714C71.521 105.095 71.2712 104.316 71.1822 103.551C71.0086 102.844 70.9539 102.113 71.0204 101.388C71.308 100.189 71.9075 99.068 72.2652 97.8826C72.9275 95.6843 73.4335 93.4383 74.1399 91.2553C75.9545 85.6445 79.8559 82.2923 85.5538 80.955C87.6754 80.5211 89.8826 80.901 91.7371 82.0191C91.6486 82.0581 91.5565 82.0882 91.4621 82.1089C91.3604 82.1136 91.2586 82.1072 91.1583 82.0901C87.7164 81.4783 84.1704 82.1862 81.2273 84.0727C75.5428 87.5894 72.8422 95.1217 75.3856 101.302C75.4707 101.449 75.525 101.611 75.5453 101.779C75.5655 101.948 75.5513 102.118 75.5034 102.281C75.4556 102.443 75.3751 102.594 75.2669 102.725C75.1587 102.855 75.0251 102.962 74.8742 103.039C74.268 103.317 73.6121 103.47 72.9455 103.489C71.9875 103.572 71.6873 104.095 71.663 104.969C71.6388 105.844 72.302 105.805 72.8314 105.9C73.2694 105.953 73.7112 105.967 74.1516 105.941C79.5044 105.941 84.857 105.945 90.2092 105.952C90.425 105.985 90.635 106.049 90.833 106.141C90.7306 106.357 90.6017 106.56 90.4492 106.744C89.0528 107.801 87.3406 108.355 85.5898 108.318C82.8586 108.355 80.1307 108.117 77.4473 107.608C73.6596 106.849 69.7251 107.572 66.4549 109.628C64.8026 110.661 63.5143 112.184 62.7701 113.984C62.6982 114.262 62.6885 114.552 62.7416 114.834C62.7947 115.116 62.9094 115.382 63.0775 115.615C63.2572 115.848 64.0786 115.774 64.5046 115.592C65.2092 115.288 65.7979 114.723 66.4899 114.377C67.73 113.644 69.0498 113.055 70.4237 112.622C73.1073 111.993 75.7352 112.795 78.2948 113.531C81.2947 114.397 84.4327 114.68 87.5391 114.364C90.8833 114.033 93.5894 112.233 96.1301 110.14C97.5855 108.96 98.6249 107.345 99.0959 105.532C99.3397 104.614 99.7818 103.76 100.391 103.031C102.463 100.56 103.979 97.6706 104.835 94.5609C105.803 91.0917 106.133 87.4755 105.809 83.8884C105.662 81.5293 105.463 79.1557 104.288 77.0068C103.281 75.0204 102.024 73.1711 100.547 71.5039C98.8056 69.6435 97.16 67.7041 94.9563 66.391C92.4992 64.9279 89.9567 63.605 87.4753 62.185C85.9016 61.2809 84.3549 60.3273 82.8289 59.3432C82.4794 59.1217 82.2202 58.7829 82.0979 58.3877C81.9755 57.9924 81.9979 57.5665 82.1611 57.1862C82.4505 56.221 83.1641 56.1509 83.9981 56.2578C86.6223 56.5988 89.1682 57.3892 91.5241 58.5945C92.1379 58.9046 92.7607 59.1967 93.38 59.4933C93.4204 59.3917 93.4599 59.2884 93.4995 59.1868C90.3459 57.1984 86.778 55.9606 83.0706 55.5685C83.3672 55.2291 83.7511 54.9773 84.1805 54.8406C88.1546 54.1019 92.2125 53.9228 96.2361 54.3085C96.8212 54.3454 97.4045 54.3849 97.994 54.4235C97.994 54.3265 97.994 54.2294 97.994 54.1333C93.2498 53.5162 88.4399 53.6146 83.7249 54.4253C83.9325 52.9182 83.9118 52.8615 85.1952 52.3951C87.0376 51.7255 88.9133 51.1513 90.7727 50.532C90.9579 50.47 91.1322 50.3739 91.312 50.2939C91.2715 50.1815 91.2311 50.0692 91.1915 49.9577L84.1509 52.2163C83.938 49.8691 83.22 47.5958 82.0461 45.5522C81.8753 45.2691 81.9984 44.7882 82.0362 44.4036C82.2384 43.2799 82.3538 42.1424 82.3813 41.001C82.2725 39.0831 81.9256 37.1787 81.7162 35.2653C81.6048 34.2542 81.1069 33.9442 80.3277 34.558C78.4916 36.005 76.7076 37.5175 74.8778 38.9717C74.5845 39.2053 74.2228 39.3366 73.8478 39.3455C71.6852 39.1367 69.5025 39.3591 67.4264 39.9998C67.2559 40.0494 67.077 40.0635 66.9008 40.0414C66.7247 40.0193 66.5549 39.9614 66.4019 39.8713C64.777 38.7766 63.2168 37.5849 61.5766 36.5154C60.7498 36.054 59.8915 35.6516 59.008 35.3111C58.271 39.0786 58.2081 42.5243 59.4196 45.909C59.5076 46.1717 59.5366 46.4506 59.5046 46.7259C59.4726 47.0011 59.3804 47.2659 59.2345 47.5015C58.7323 48.5651 58.3698 49.6891 58.156 50.8457C58.0559 51.8649 58.0435 52.8908 58.1192 53.9122L50.5518 52.556C50.5384 52.6459 50.524 52.7357 50.5114 52.8202C52.7438 53.2822 54.9736 53.7603 57.2123 54.1953C58.2405 54.3948 58.9505 54.8406 58.9837 56.0323C53.9639 55.7253 48.9286 56.2822 44.0972 57.6787M64.8129 101.074C65.2984 96.4011 65.1621 91.6845 64.4076 87.0475C67.0714 91.6849 67.2736 98.109 64.8129 101.074ZM71.2083 58.5703C70.7852 58.4887 70.3484 58.5153 69.9384 58.6476C69.2561 58.8484 68.5575 58.9885 67.8506 59.0664C68.7269 58.493 69.5906 57.898 70.4884 57.3642C70.6331 57.2743 70.9297 57.4028 71.1409 57.4729C72.2059 57.8243 73.2655 58.1919 74.3556 58.5586C73.334 58.8906 72.2341 58.8947 71.2101 58.5703M74.9191 48.1378C76.6456 47.2391 78.1591 47.9707 79.5494 48.9269C79.2294 49.2397 78.8385 49.4437 78.7405 49.7429C78.1357 51.6492 76.2304 51.8631 74.7502 51.4326C74.2684 51.2924 73.7616 51.2366 73.145 51.1189C73.1498 50.5098 73.3162 49.9128 73.6273 49.389C73.9384 48.8653 74.3829 48.4335 74.9155 48.1378M68.8042 55.4175L72.6193 55.0023L72.7694 55.3618C72.0504 55.8759 71.3808 56.647 70.5863 56.816C70.0471 56.9301 69.3362 56.1922 68.699 55.8354L68.8042 55.4175ZM66.5133 48.864C67.7293 49.4113 68.0097 50.5949 68.0501 51.9197C66.9069 52.0338 65.6928 52.4814 64.7428 52.1569C63.7928 51.8325 63.1197 50.7351 62.2326 49.8894C63.6508 49.166 64.919 48.1486 66.5142 48.8667M75.0629 50.949C74.8449 50.8224 74.6677 50.6358 74.5524 50.4116C74.4371 50.1873 74.3884 49.9347 74.4122 49.6836C74.4778 49.4347 74.6079 49.2075 74.7894 49.0249C74.9708 48.8424 75.1973 48.7109 75.4458 48.6438C76.189 48.3742 76.6016 48.9916 76.2951 49.8903L75.5285 49.4194C75.6534 50.2193 75.8511 51.0713 76.6069 50.8502C77.6854 50.5338 77.4491 49.4895 77.1893 48.589L77.4347 48.4838C77.6881 48.8182 78.1968 49.2073 78.1393 49.4724C78.0215 50.0117 77.698 50.7486 77.272 50.9104C76.9352 51.0965 76.5579 51.1973 76.1732 51.2041C75.7884 51.2108 75.4079 51.1233 75.0647 50.949M63.8099 50.5428C63.792 50.4147 63.8074 50.2842 63.8547 50.1637C63.9019 50.0433 63.9793 49.9371 64.0795 49.8553C64.4069 49.654 64.7924 49.5685 65.1742 49.6126C65.3872 49.6612 65.5058 50.1276 65.6667 50.4062L65.4726 50.5644L64.7671 50.2561C64.8143 50.5275 64.8924 50.7925 64.9998 51.0461C65.2055 51.3122 65.4971 51.4986 65.8249 51.5737C66.2205 51.0505 66.5872 50.5059 66.9231 49.9425C66.9483 50.4278 67.1424 50.9706 66.9555 51.2906C66.7596 51.6137 66.4506 51.8524 66.0884 51.9602C65.7263 52.068 65.3369 52.0373 64.9962 51.8738C64.4956 51.6608 63.8126 51.1162 63.8126 50.5383M75.0018 2.15491e-08C60.1681 -0.000355485 45.6675 4.39801 33.3336 12.6389C20.9996 20.8798 11.3864 32.5931 5.70958 46.2975C0.0327364 60.0019 -1.45277 75.082 1.44092 89.6306C4.33461 104.179 11.4775 117.543 21.9664 128.032C32.4552 138.521 45.819 145.665 60.3676 148.559C74.9162 151.453 89.9963 149.968 103.701 144.291C117.405 138.615 129.119 129.002 137.36 116.668C145.601 104.334 150 89.8336 150 75C149.977 55.116 142.069 36.0529 128.009 21.9926C113.949 7.9323 94.8858 0.0230732 75.0018 2.15491e-08ZM75.0018 147.032C60.7549 147.033 46.8279 142.808 34.9819 134.893C23.136 126.978 13.9032 115.728 8.45102 102.565C2.99888 89.403 1.57231 74.9195 4.3517 60.9463C7.13109 46.9731 13.9916 34.138 24.0657 24.0639C34.1398 13.9898 46.975 7.12926 60.9481 4.34987C74.9213 1.57048 89.4049 2.99705 102.567 8.44919C115.73 13.9013 126.98 23.1342 134.895 34.9801C142.81 46.826 147.034 60.7531 147.034 75C147.012 94.0974 139.416 112.406 125.912 125.91C112.408 139.414 94.0992 147.01 75.0018 147.032ZM132.161 81.8097L136.357 80.9172L136.04 83.6341L132.161 81.8097ZM120.24 41.9707C119.176 40.5166 119.538 38.8404 121.108 37.6919C122.703 36.5235 124.383 36.7033 125.448 38.1619C126.495 39.5909 126.167 41.2607 124.572 42.4273C123.002 43.5759 121.286 43.4006 120.24 41.9707ZM75.0018 4.90797C61.1391 4.90797 47.5877 9.01874 36.0613 16.7205C24.5349 24.4222 15.5511 35.3689 10.2461 48.1764C4.94104 60.9838 3.553 75.0768 6.25748 88.6732C8.96196 102.27 15.6375 114.759 25.4399 124.561C35.2423 134.363 47.7314 141.039 61.3277 143.743C74.9241 146.448 89.017 145.06 101.825 139.755C114.632 134.45 125.579 125.466 133.28 113.94C140.982 102.413 145.093 88.8618 145.093 74.9991C145.093 56.4098 137.708 38.582 124.563 25.4374C111.419 12.2929 93.5911 4.90821 75.0018 4.90797ZM133.452 46.9955L128.958 53.8987L135.261 51.1378L136.339 53.6174L126.161 58.0661L125.077 55.5865L129.543 48.6959L123.265 51.4398L122.181 48.9611L132.36 44.5123L133.452 46.9955ZM127.426 36.7149C128.085 37.6249 128.46 38.7099 128.503 39.8328C128.546 40.9557 128.255 42.0661 127.667 43.0239C127.08 43.9817 126.221 44.7439 125.201 45.2141C124.18 45.6844 123.043 45.8416 121.933 45.6661C120.823 45.4905 119.79 44.9899 118.965 44.2276C118.139 43.4653 117.558 42.4754 117.295 41.383C117.031 40.2906 117.097 39.1446 117.485 38.0899C117.873 37.0351 118.564 36.1188 119.472 35.4567C120.069 34.9957 120.753 34.6615 121.484 34.4746C122.214 34.2877 122.975 34.2521 123.72 34.3699C124.465 34.4877 125.178 34.7565 125.815 35.1598C126.452 35.563 127 36.0922 127.426 36.7149ZM121.732 30.1452L113.884 38.0037L111.97 36.0921L119.818 28.2336L121.732 30.1452ZM111.167 21.1013L117.967 26.3526L116.642 28.0683L114.313 26.2708L108.849 33.3474L106.707 31.6928L112.172 24.6189L109.842 22.8215L111.167 21.1013ZM104.132 17.0121C105.227 17.4911 106.122 18.3356 106.663 19.4012C107.204 20.4668 107.358 21.6873 107.098 22.8538L104.434 21.5174C104.451 21.0325 104.324 20.5535 104.068 20.1414C103.812 19.7293 103.439 19.4027 102.996 19.2032C101.513 18.459 99.9407 19.0513 99.0635 20.8029C98.1864 22.5545 98.6483 24.1696 100.133 24.9137C100.557 25.1491 101.042 25.253 101.526 25.2122C102.009 25.1714 102.47 24.9877 102.849 24.6845L105.506 26.0174C104.726 26.92 103.657 27.5236 102.482 27.7247C101.306 27.9259 100.097 27.7122 99.0617 27.1201C98.3818 26.8113 97.7735 26.3644 97.2757 25.8077C96.7779 25.2511 96.4013 24.5969 96.1701 23.8868C95.9388 23.1768 95.8578 22.4263 95.9323 21.6833C96.0068 20.9402 96.2352 20.2208 96.6028 19.5708C96.9038 18.8864 97.3438 18.2721 97.8949 17.7669C98.446 17.2616 99.0962 16.8765 99.8041 16.636C100.512 16.3955 101.262 16.3048 102.007 16.3697C102.752 16.4346 103.475 16.6536 104.131 17.013M96.166 13.6877L95.5711 15.7709L91.6319 14.6493L91.0154 16.8063L94.4989 17.8012L93.9255 19.808L90.442 18.8131L89.7725 21.1552L93.7116 22.2804L93.1166 24.3637L86.5784 22.4952L89.6278 11.8201L96.166 13.6877ZM78.2624 10.1763L86.8004 11.1649L86.5505 13.3219L83.626 12.9831L82.5952 21.8634L79.9071 21.5507L80.9361 12.6721L78.0117 12.3306L78.2624 10.1763ZM69.826 10.2905C70.5734 10.2112 71.3291 10.285 72.047 10.5073C72.7649 10.7296 73.4301 11.0957 74.0019 11.5834C74.5737 12.0712 75.0402 12.6702 75.373 13.3441C75.7057 14.018 75.8978 14.7526 75.9374 15.5031C76.0032 16.252 75.92 17.0066 75.6927 17.7232C75.4654 18.4398 75.0983 19.1043 74.6128 19.6783C74.1273 20.2524 73.5329 20.7245 72.8639 21.0676C72.1949 21.4107 71.4646 21.6179 70.7152 21.6772C69.9657 21.7366 69.2119 21.6469 68.4973 21.4134C67.7826 21.1798 67.1213 20.8071 66.5515 20.3166C65.9817 19.8261 65.5147 19.2277 65.1774 18.5558C64.8401 17.8839 64.6393 17.1518 64.5864 16.4018C64.5125 15.6531 64.591 14.8971 64.8171 14.1795C65.0433 13.4619 65.4124 12.7976 65.9023 12.2265C66.3921 11.6554 66.9926 11.1895 67.6674 10.8567C68.3422 10.524 69.0774 10.3314 69.8287 10.2905M57.1566 12.7422C59.7674 11.9792 61.511 13.1017 62.0529 14.9522C62.2753 15.6544 62.2511 16.4116 61.9842 17.0981C61.7172 17.7846 61.2236 18.3593 60.5853 18.7269L64.2773 22.2319L61.3474 23.0875L57.9574 19.7137L57.3346 19.8934L58.5029 23.9062L55.9083 24.6648L52.7951 14.0139L57.1566 12.7422ZM46.2029 16.986C48.6295 15.7583 50.5384 16.5133 51.4578 18.3341C52.2864 19.9725 51.9413 22.062 49.4131 23.3391L47.9159 24.095L49.7133 27.6548L47.2975 28.8753L42.2916 18.9632L46.2029 16.986ZM75.0018 24.8167C84.9278 24.8167 94.6309 27.7601 102.884 33.2748C111.137 38.7894 117.57 46.6276 121.368 55.7981C125.166 64.9687 126.16 75.0596 124.223 84.7948C122.287 94.53 117.506 103.472 110.487 110.491C103.468 117.509 94.5258 122.289 84.7904 124.225C75.055 126.161 64.9642 125.167 55.794 121.367C46.6237 117.568 38.786 111.135 33.2719 102.882C27.7578 94.6284 24.8151 84.9251 24.8158 74.9991C24.8158 61.6889 30.1032 48.9239 39.5149 39.5122C48.9266 30.1005 61.6916 24.8131 75.0018 24.8131M33.1749 25.3855L34.6776 26.9457L32.5584 28.9859L38.7596 35.4217L36.8076 37.2973L30.6063 30.8615L28.4916 32.9007L26.9889 31.3405L33.1749 25.3855ZM23.0237 36.3357L34.4106 39.4741L32.7561 41.8108L30.7708 41.2203L28.3757 44.6031L29.5916 46.2801L27.956 48.5917L21.2119 38.8926L23.0237 36.3357ZM15.2946 49.5767C15.7044 48.4549 16.4909 47.5102 17.5198 46.9037C18.5486 46.2972 19.756 46.0667 20.936 46.2514L19.7739 48.988C19.2886 49.0021 18.8184 49.1601 18.4231 49.4421C18.0278 49.7241 17.7253 50.1172 17.554 50.5716C16.9043 52.0994 17.5945 53.6273 19.4009 54.3984C21.2074 55.1695 22.7865 54.5988 23.4362 53.0709C23.6446 52.6324 23.7176 52.1418 23.6461 51.6617C23.5745 51.1815 23.3616 50.7335 23.0345 50.3748L24.1939 47.6327C25.144 48.354 25.8139 49.3831 26.089 50.5438C26.3641 51.7045 26.2273 52.9248 25.7019 53.9957C25.4367 54.6941 25.029 55.3297 24.5048 55.8619C23.9805 56.3941 23.3512 56.8113 22.6568 57.087C21.9625 57.3627 21.2184 57.4908 20.4719 57.4631C19.7253 57.4355 18.9927 57.2528 18.3207 56.9265C17.6182 56.6695 16.9769 56.2692 16.4375 55.751C15.8982 55.2328 15.4725 54.6081 15.1875 53.9165C14.9026 53.225 14.7647 52.4817 14.7825 51.7339C14.8003 50.9862 14.9735 50.2503 15.291 49.5731M9.59938 82.0667C9.35133 79.6905 10.3381 77.7106 12.5652 77.3978L12.8645 80.262C12.6899 80.2809 12.5212 80.3356 12.3688 80.4227C12.2164 80.5098 12.0836 80.6275 11.9788 80.7683C11.874 80.9091 11.7994 81.0701 11.7597 81.2411C11.7201 81.4121 11.7162 81.5894 11.7482 81.762C11.83 82.5493 12.2758 83.0122 12.9229 82.9448C14.9675 82.73 13.2896 77.3223 17.2107 76.9439C19.303 76.7255 20.6466 78.319 20.8874 80.6287C21.14 83.0364 20.1136 84.7827 18.016 85.1125L17.7122 82.2015C17.8714 82.1787 18.0243 82.1243 18.1621 82.0414C18.2998 81.9585 18.4195 81.8488 18.5142 81.7189C18.6089 81.589 18.6765 81.4414 18.7132 81.2849C18.7499 81.1283 18.7549 80.966 18.7278 80.8076C18.7351 80.6621 18.7101 80.5167 18.6546 80.382C18.5991 80.2472 18.5146 80.1264 18.407 80.0282C18.2994 79.9299 18.1714 79.8567 18.0322 79.8137C17.8929 79.7707 17.7459 79.759 17.6017 79.7794C15.6829 79.9798 17.1182 85.3516 13.4208 85.7362C11.564 85.9303 9.8699 84.6425 9.60028 82.0631M12.0987 94.2858C11.8623 93.5704 11.773 92.8146 11.8362 92.0637C11.8993 91.3129 12.1136 90.5826 12.4662 89.9167C12.8188 89.2508 13.3024 88.6631 13.8879 88.1889C14.4734 87.7146 15.1488 87.3637 15.8734 87.1571C16.9502 86.8273 18.1006 86.824 19.1793 87.1476C20.258 87.4713 21.2166 88.1074 21.9339 88.9756C22.6512 89.8438 23.0951 90.9051 23.2096 92.0255C23.324 93.1458 23.1038 94.275 22.5768 95.2703C22.0498 96.2655 21.2396 97.0823 20.2487 97.6174C19.2577 98.1524 18.1304 98.3818 17.0091 98.2764C15.8878 98.1711 14.823 97.7358 13.949 97.0255C13.075 96.3152 12.4311 95.3619 12.0987 94.2858ZM17.6268 107.129C17.237 106.491 16.984 105.78 16.8841 105.04C16.7842 104.299 16.8394 103.546 17.0464 102.829C17.2533 102.111 17.6074 101.444 18.0861 100.871C18.5648 100.297 19.1577 99.8295 19.8269 99.4976C20.4603 99.0994 21.1695 98.8374 21.9096 98.7282C22.6497 98.6189 23.4044 98.6649 24.1257 98.8631C24.8471 99.0613 25.5193 99.4075 26.0996 99.8795C26.68 100.352 27.1557 100.939 27.4967 101.605C28.1335 102.616 28.3996 103.816 28.2494 105.001C28.0993 106.186 27.5422 107.281 26.6735 108.101L25.2211 105.506C25.5073 105.114 25.6703 104.646 25.6893 104.16C25.7084 103.675 25.5826 103.195 25.3281 102.782C24.5192 101.332 22.8835 100.941 21.1723 101.899C19.4611 102.857 18.9408 104.454 19.7514 105.904C19.9706 106.337 20.3136 106.695 20.737 106.933C21.1603 107.17 21.6447 107.276 22.1286 107.237L23.5809 109.832C22.4291 110.142 21.2052 110.042 20.1191 109.549C19.0329 109.056 18.1513 108.2 17.6268 107.129ZM23.7283 116.05L22.0801 113.907L30.8804 107.14L32.5287 109.283L23.7283 116.05ZM31.8421 121.708L30.2837 123.216L25.5474 118.33L33.5236 110.601L38.259 115.486L36.7024 116.995L33.8498 114.049L32.2375 115.613L34.7593 118.214L33.2549 119.668L30.733 117.061L28.985 118.758L31.8421 121.708ZM47.9833 130.835L46.3089 134.101L43.903 132.868L45.5747 129.602L45.5441 121.26L44.3021 122.908L41.9528 121.137L36.5748 128.272L34.4178 126.644L39.7967 119.509L37.4448 117.734L38.7488 116.005L45.6052 121.174L45.5567 121.239L48.2736 122.63L48.0677 127.753L52.0878 124.587L54.7903 125.971L47.9833 130.835ZM71.4491 135.256C71.2815 136.371 70.7866 137.411 70.0273 138.244C69.2679 139.077 68.2783 139.666 67.1838 139.936C66.0894 140.206 64.9394 140.146 63.8796 139.761C62.8198 139.377 61.8979 138.687 61.2309 137.778C60.5638 136.869 60.1816 135.783 60.1327 134.657C60.0838 133.531 60.3703 132.415 60.956 131.452C61.5417 130.489 62.4002 129.721 63.4227 129.246C64.4452 128.772 65.5856 128.611 66.6993 128.785C67.4429 128.883 68.159 129.13 68.8045 129.512C69.45 129.894 70.0115 130.403 70.4553 131.007C70.8991 131.612 71.2159 132.3 71.3867 133.03C71.5575 133.76 71.5787 134.518 71.4491 135.256ZM76.0327 134.068L79.4173 133.978L79.4748 136.081L76.0911 136.171L76.2151 140.665L73.5117 140.74L73.2053 129.641L80.431 129.441L80.4913 131.607L75.9679 131.733L76.0327 134.068ZM97.4764 136.746L94.267 137.825L87.0071 128.547L89.7356 127.632L95.0076 134.705L94.9689 125.879L97.6831 124.97L97.4764 136.746ZM103.201 134.34L98.2232 124.416L100.642 123.203L105.619 133.127L103.201 134.34ZM112.722 128.857C111.493 129.689 109.986 130.004 108.526 129.734C107.067 129.464 105.772 128.632 104.921 127.416C104.07 126.2 103.731 124.698 103.978 123.234C104.224 121.77 105.037 120.462 106.239 119.592C107.181 118.858 108.348 118.473 109.542 118.504C110.736 118.534 111.883 118.978 112.785 119.76L110.349 121.468C109.93 121.222 109.448 121.107 108.963 121.136C108.478 121.166 108.013 121.339 107.628 121.634C106.266 122.586 106.039 124.25 107.165 125.858C108.29 127.467 109.929 127.823 111.29 126.872C111.699 126.61 112.021 126.233 112.215 125.788C112.409 125.342 112.466 124.85 112.379 124.372L114.816 122.664C115.239 123.779 115.262 125.007 114.88 126.136C114.498 127.266 113.736 128.228 112.722 128.857ZM120.923 121.964L114.547 115.698L112.484 117.798L110.938 116.278L116.96 110.149L118.507 111.67L116.444 113.768L122.821 120.032L120.923 121.964ZM129.761 111.458C129.137 112.394 128.251 113.125 127.213 113.557C126.174 113.989 125.031 114.104 123.928 113.886C122.824 113.669 121.81 113.129 121.014 112.336C120.217 111.542 119.673 110.53 119.452 109.427C119.231 108.324 119.341 107.181 119.769 106.141C120.198 105.101 120.925 104.212 121.859 103.585C122.793 102.959 123.892 102.623 125.016 102.621C126.141 102.619 127.241 102.95 128.177 103.573C128.809 103.978 129.354 104.505 129.778 105.125C130.202 105.745 130.496 106.443 130.644 107.179C130.792 107.915 130.79 108.673 130.638 109.408C130.486 110.144 130.188 110.841 129.761 111.458ZM136.298 98.6582L131.543 99.1974L131.296 99.7978L135.169 101.397L134.137 103.893L123.876 99.6576L125.607 95.4614C126.645 92.9449 128.611 92.288 130.395 93.0231C131.081 93.2897 131.656 93.7822 132.024 94.4195C132.393 95.0567 132.533 95.8005 132.422 96.5282L137.463 95.838L136.298 98.6582ZM138.127 93.211L127.397 90.3611L128.091 87.7467L138.82 90.5966L138.127 93.211ZM139.896 85.4729L139.566 88.285L129.008 83.0032L129.373 79.8945L140.866 77.1983L140.533 80.041L138.508 80.4733L138.026 84.5885L139.896 85.4729ZM67.3419 16.1807C67.1856 14.2098 68.2218 12.8743 70.0192 12.7323C71.7853 12.5912 73.0345 13.7461 73.1909 15.717C73.3454 17.6547 72.2921 19.0234 70.5288 19.1636C68.7314 19.3056 67.4965 18.1193 67.3419 16.1807ZM68.7269 134.833C68.4312 136.756 67.0966 137.846 65.3458 137.579C63.5646 137.309 62.6326 135.867 62.9283 133.944C63.2284 131.989 64.546 130.927 66.3246 131.2C68.0753 131.47 69.0271 132.88 68.7269 134.833ZM28.6642 40.5813L27.0824 42.8155L24.5507 39.3554L28.6642 40.5813ZM18.4033 95.4182C16.5412 95.988 14.9774 95.2583 14.4579 93.5633C13.9304 91.8377 14.8228 90.3728 16.6832 89.803C18.5759 89.2242 20.1028 89.9486 20.6322 91.6732C21.1499 93.3682 20.2943 94.8386 18.4024 95.4173M127.711 110.087C126.711 111.586 125.015 111.823 123.398 110.743C121.753 109.645 121.346 108.004 122.348 106.505C123.331 105.032 125.012 104.764 126.655 105.861C128.273 106.94 128.698 108.614 127.714 110.086M130.172 97.5096L129.532 99.0599L126.988 98.0093L127.629 96.4599C127.688 96.2796 127.784 96.1134 127.91 95.9718C128.036 95.8302 128.191 95.7162 128.363 95.6369C128.535 95.5576 128.722 95.5147 128.912 95.5109C129.102 95.5072 129.29 95.5426 129.466 95.615C129.641 95.6874 129.8 95.7952 129.932 95.9317C130.064 96.0682 130.166 96.2304 130.232 96.4083C130.298 96.5861 130.327 96.7757 130.317 96.9652C130.307 97.1547 130.257 97.34 130.172 97.5096ZM56.7917 18.0519L56.0206 15.4114L57.6293 14.9405C57.8044 14.858 57.9959 14.8159 58.1894 14.8175C58.383 14.8191 58.5737 14.8642 58.7474 14.9496C58.9212 15.035 59.0734 15.1584 59.1929 15.3107C59.3124 15.463 59.396 15.6403 59.4376 15.8293C59.5097 16.012 59.5391 16.2088 59.5235 16.4046C59.5079 16.6004 59.4478 16.79 59.3477 16.959C59.2477 17.128 59.1103 17.2719 58.9461 17.3797C58.7819 17.4875 58.5953 17.5563 58.4005 17.581L56.7917 18.0519ZM48.2637 21.5084L46.9506 22.1717L45.6924 19.6858L47.0054 19.0225C47.1703 18.9185 47.355 18.8501 47.5478 18.8216C47.7406 18.7931 47.9372 18.8052 48.125 18.8571C48.3129 18.909 48.4878 18.9996 48.6386 19.123C48.7894 19.2465 48.9128 19.4001 49.0008 19.574C49.0888 19.7478 49.1395 19.9382 49.1497 20.1328C49.1599 20.3274 49.1293 20.522 49.0599 20.7042C48.9905 20.8863 48.8838 21.0519 48.7467 21.1904C48.6096 21.3289 48.4451 21.4372 48.2637 21.5084Z" fill="currentColor"/>
</svg>
