<svg width="48" height="48" viewBox="0 0 48 48" fill="none" xmlns="http://www.w3.org/2000/svg">
<path d="M6.69256 19.4408C6.86587 19.6142 7.10093 19.7115 7.34604 19.7115V19.7181C7.59114 19.7181 7.8262 19.6207 7.99952 19.4474C8.17283 19.2741 8.2702 19.039 8.2702 18.7939C8.27332 16.0037 9.38302 13.3287 11.3559 11.3556C13.3287 9.38248 16.0036 8.27245 18.7938 8.26898C19.0389 8.26898 19.274 8.17161 19.4473 7.9983C19.6206 7.82498 19.718 7.58992 19.718 7.34482C19.718 7.09971 19.6206 6.86465 19.4473 6.69134C19.274 6.51802 19.0389 6.42065 18.7938 6.42065C15.5147 6.42447 12.3708 7.72844 10.0516 10.0467C7.73239 12.3649 6.42708 15.5082 6.42188 18.7874C6.42188 19.0325 6.51924 19.2675 6.69256 19.4408Z" fill="currentColor"/>
<path fill-rule="evenodd" clip-rule="evenodd" d="M18.7926 37.5852C15.0758 37.5852 11.4424 36.483 8.35199 34.4181C5.26157 32.3531 2.85287 29.4181 1.43051 25.9842C0.00814259 22.5503 -0.364013 18.7717 0.361103 15.1263C1.08622 11.4809 2.87604 8.13242 5.50423 5.50423C8.13242 2.87604 11.4809 1.08622 15.1263 0.361103C18.7717 -0.364013 22.5503 0.00814259 25.9842 1.43051C29.4181 2.85287 32.3531 5.26157 34.4181 8.35199C36.483 11.4424 37.5852 15.0758 37.5852 18.7926C37.581 22.5519 36.4518 26.1941 34.3844 29.269L46.9437 41.8271C47.4488 42.3328 47.7927 42.9768 47.9319 43.6779C48.0711 44.3789 47.9994 45.1054 47.7258 45.7657C47.4523 46.426 46.9892 46.9904 46.395 47.3876C45.8008 47.7848 45.1023 47.997 44.3876 47.9974L44.3862 48C43.9115 48.0014 43.4411 47.9085 43.0026 47.7267C42.564 47.5449 42.1659 47.2777 41.8314 46.9408L29.2725 34.382C26.1968 36.4509 22.5533 37.581 18.7926 37.5852ZM18.7926 1.84964C15.4412 1.84938 12.165 2.84296 9.37837 4.70472C6.5917 6.56648 4.41971 9.2128 3.13708 12.309C1.85444 15.4052 1.51878 18.8123 2.17253 22.0992C2.82629 25.3862 4.4401 28.4055 6.80988 30.7753C9.17966 33.1451 12.199 34.7589 15.4859 35.4126C18.7729 36.0664 22.18 35.7307 25.2762 34.4481C28.3724 33.1655 31.0187 30.9935 32.8805 28.2068C34.7422 25.4201 35.7358 22.144 35.7355 18.7926C35.7307 14.3004 33.9441 9.99359 30.7678 6.81702C27.5915 3.64044 23.2848 1.85353 18.7926 1.84833V1.84964ZM31.0167 33.5136L43.1331 45.6299C43.4687 45.9499 43.9147 46.1283 44.3784 46.1283C44.8421 46.1283 45.288 45.9499 45.6237 45.6299C45.9532 45.2992 46.1382 44.8515 46.1382 44.3846C46.1382 43.9178 45.9532 43.47 45.6237 43.1393L33.5165 31.0203L31.0167 33.5136Z" fill="currentColor"/>
</svg>
