<svg width="600" height="150" viewBox="0 0 600 150" fill="none" xmlns="http://www.w3.org/2000/svg">
<path d="M168.002 52.3789C167.96 49.765 168.609 47.1864 169.884 44.905C171.093 42.7494 172.872 40.9688 175.026 39.7587C177.257 38.5141 179.776 37.8775 182.33 37.9127C185.28 37.8513 188.178 38.7002 190.63 40.344C193.001 41.9591 194.756 44.33 195.61 47.0706H189.096C188.52 45.7995 187.565 44.7379 186.363 44.0315C185.12 43.3387 183.716 42.9891 182.294 43.0184C180.751 42.9905 179.231 43.39 177.901 44.1729C176.611 44.9512 175.571 46.0834 174.905 47.4353C174.159 48.9743 173.791 50.6691 173.831 52.3789C173.796 54.082 174.163 55.7693 174.905 57.3027C175.567 58.6628 176.607 59.8025 177.901 60.585C179.231 61.3679 180.751 61.7674 182.294 61.7394C183.719 61.7695 185.125 61.4132 186.363 60.7084C187.564 59.9897 188.517 58.9216 189.096 57.6467H195.614C194.775 60.3941 193.026 62.7735 190.655 64.3931C188.192 66.0313 185.286 66.8731 182.33 66.8046C179.776 66.8403 177.258 66.2044 175.026 64.9604C172.877 63.7542 171.099 61.9815 169.885 59.8349C168.608 57.5608 167.958 54.9874 168.002 52.3789ZM217.801 61.1721H206.546L204.683 66.5615H198.732L208.894 38.2369H215.494L225.656 66.5615H219.668L217.801 61.1721ZM216.263 56.6337L212.174 44.8014L208.084 56.6337H216.263ZM248.693 38.2774V42.8564H241.162V66.5615H235.494V42.8564H227.964V38.2774H248.693ZM283.062 47.0301C283.069 48.5162 282.7 49.9798 281.99 51.2848C281.216 52.6652 280.045 53.7806 278.629 54.486C276.834 55.3563 274.854 55.7736 272.86 55.7017H268.127V66.5615H262.459V38.2774H272.864C274.788 38.2225 276.7 38.6107 278.451 39.412C279.892 40.0801 281.098 41.1675 281.912 42.5322C282.693 43.9006 283.092 45.4543 283.067 47.0301H283.062ZM272.616 51.1228C273.872 51.2249 275.118 50.8406 276.098 50.0494C276.489 49.654 276.791 49.1808 276.986 48.6606C277.182 48.1404 277.265 47.5848 277.232 47.0301C277.232 44.2746 275.693 42.8969 272.616 42.8969H268.118V51.1228H272.616ZM301.65 66.5615L295.415 55.5396H292.743V66.5615H287.075V38.2774H297.682C299.609 38.2219 301.522 38.6172 303.27 39.4318C304.705 40.1082 305.91 41.1936 306.732 42.552C307.507 43.8856 307.906 45.4051 307.886 46.9481C307.902 48.7596 307.334 50.528 306.267 51.9908C305.078 53.5624 303.371 54.661 301.449 55.0912L308.209 66.5615H301.65ZM292.743 51.2848H297.48C298.729 51.3846 299.967 50.9847 300.921 50.1728C301.312 49.7612 301.615 49.2737 301.81 48.7404C302.005 48.207 302.088 47.6393 302.055 47.0724C302.089 46.5171 302.006 45.9608 301.81 45.44C301.615 44.9191 301.312 44.4453 300.921 44.0495C299.955 43.2619 298.722 42.8771 297.48 42.9752H292.743V51.2848ZM326.145 66.8451C323.595 66.8695 321.083 66.227 318.857 64.9811C316.67 63.7642 314.852 61.9791 313.594 59.8142C312.281 57.5454 311.609 54.9618 311.651 52.3402C311.612 49.7312 312.284 47.1609 313.594 44.905C314.852 42.74 316.67 40.9549 318.857 39.738C321.083 38.4921 323.595 37.8496 326.145 37.874C328.702 37.8446 331.222 38.4873 333.452 39.738C335.628 40.9565 337.433 42.7421 338.675 44.905C339.972 47.1633 340.636 49.7296 340.599 52.3339C340.641 54.9529 339.977 57.5348 338.676 59.8079C337.43 61.9747 335.617 63.7609 333.434 64.9748C331.208 66.2231 328.696 66.8678 326.145 66.8451ZM326.145 61.7799C327.72 61.8123 329.274 61.4128 330.639 60.6246C331.948 59.8398 333.003 58.6928 333.676 57.3217C334.432 55.77 334.806 54.0599 334.769 52.3339C334.807 50.6153 334.432 48.9126 333.676 47.3696C333.001 46.0102 331.946 44.8768 330.639 44.108C329.27 43.3326 327.718 42.9407 326.145 42.9734C324.566 42.9424 323.007 43.3341 321.63 44.108C320.313 44.8715 319.249 46.0057 318.571 47.3696C317.814 48.9126 317.439 50.6153 317.478 52.3339C317.441 54.0587 317.816 55.7674 318.571 57.318C319.248 58.6936 320.311 59.8415 321.63 60.621C323.003 61.4091 324.563 61.8096 326.145 61.7799ZM364.041 38.2774V42.8564H356.515V66.5615H350.847V42.8564H343.316V38.2774H364.041ZM373.839 42.8564V49.9476H383.353V54.45H373.839V61.942H384.568V66.5615H368.171V38.2369H384.568V42.8564H373.839ZM388.333 52.3789C388.291 49.765 388.94 47.1864 390.215 44.905C391.424 42.7494 393.203 40.9688 395.357 39.7587C397.59 38.5141 400.11 37.8782 402.665 37.9145C405.615 37.8531 408.513 38.702 410.965 40.3458C413.336 41.961 415.091 44.3318 415.945 47.0724H409.427C408.851 45.8013 407.896 44.7397 406.694 44.0333C405.451 43.3405 404.047 42.9909 402.625 43.0203C401.082 42.9923 399.562 43.3918 398.232 44.1747C396.942 44.953 395.902 46.0852 395.236 47.4371C394.491 48.9762 394.123 50.6709 394.163 52.3807C394.127 54.0837 394.495 55.7711 395.236 57.3045C395.898 58.6646 396.938 59.8043 398.232 60.5868C399.562 61.3697 401.082 61.7692 402.625 61.7412C404.05 61.7706 405.455 61.4137 406.694 60.7084C407.895 59.9898 408.848 58.9218 409.427 57.6467H415.945C415.106 60.3942 413.357 62.7737 410.985 64.3931C408.524 66.0302 405.62 66.872 402.666 66.8046C400.11 66.841 397.591 66.205 395.358 64.9604C393.208 63.7543 391.43 61.9816 390.216 59.8349C388.939 57.5608 388.289 54.9874 388.333 52.3789ZM440.035 38.2774V42.8564H432.505V66.5615H426.836V42.8564H419.306V38.2774H440.035ZM449.833 38.2774V66.5615H444.165V38.2774H449.833ZM468.538 66.8451C465.988 66.8695 463.476 66.227 461.251 64.9811C459.064 63.7642 457.245 61.9791 455.987 59.8142C454.674 57.5454 454.002 54.9618 454.044 52.3402C454.005 49.7312 454.677 47.1609 455.987 44.905C457.245 42.74 459.064 40.9549 461.251 39.738C463.476 38.4921 465.988 37.8496 468.538 37.874C471.095 37.8446 473.615 38.4873 475.846 39.738C478.019 40.9571 479.823 42.7427 481.064 44.905C482.362 47.1651 483.026 49.7337 482.988 52.3402C483.029 54.9593 482.365 57.5412 481.064 59.8142C479.818 61.981 478.005 63.7672 475.821 64.9811C473.597 66.2262 471.087 66.8688 468.538 66.8451ZM468.538 61.7799C470.112 61.8115 471.664 61.412 473.028 60.6246C474.337 59.8398 475.392 58.6928 476.064 57.3217C476.82 55.771 477.195 54.0623 477.157 52.3375C477.196 50.6189 476.821 48.9162 476.064 47.3732C475.39 46.0141 474.335 44.8811 473.028 44.1125C471.659 43.3371 470.106 42.9452 468.534 42.9779C466.955 42.947 465.397 43.3387 464.02 44.1125C462.703 44.876 461.639 46.0102 460.961 47.3741C460.207 48.9163 459.834 50.6173 459.874 52.3339C459.837 54.0587 460.212 55.7674 460.967 57.318C461.644 58.6936 462.707 59.8415 464.026 60.621C465.398 61.4086 466.957 61.8091 468.538 61.7799ZM511.374 66.5615H505.705L492.871 47.1516V66.5615H487.203V38.2369H492.871L505.705 57.6872V38.2369H511.374V66.5615ZM179.136 111.869C177.311 111.897 175.5 111.552 173.812 110.856C172.319 110.248 171.023 109.238 170.067 107.938C169.137 106.624 168.643 105.051 168.654 103.441H174.727C174.742 103.959 174.858 104.469 175.07 104.942C175.282 105.415 175.585 105.841 175.962 106.196C176.816 106.911 177.91 107.273 179.021 107.209C180.14 107.274 181.246 106.936 182.138 106.257C182.506 105.957 182.799 105.575 182.996 105.143C183.192 104.711 183.287 104.239 183.272 103.765C183.3 103.001 183.023 102.258 182.503 101.698C181.96 101.137 181.301 100.701 180.573 100.419C179.532 100.02 178.471 99.6749 177.394 99.3866C175.868 98.9578 174.373 98.4229 172.921 97.7856C171.755 97.2434 170.74 96.4224 169.965 95.3948C169.087 94.1483 168.653 92.6432 168.731 91.1202C168.695 89.5677 169.133 88.0412 169.986 86.7439C170.861 85.4711 172.086 84.4796 173.513 83.8894C175.153 83.203 176.918 82.8657 178.695 82.8988C181.237 82.7831 183.742 83.5332 185.803 85.0267C186.708 85.736 187.447 86.6349 187.968 87.6603C188.489 88.6857 188.78 89.8129 188.82 90.9626H182.585C182.564 90.4942 182.442 90.0359 182.227 89.6193C182.012 89.2027 181.71 88.8376 181.34 88.5493C180.466 87.8793 179.382 87.5417 178.281 87.5966C177.323 87.5473 176.38 87.8499 175.629 88.4476C175.29 88.7591 175.024 89.1429 174.853 89.5708C174.682 89.9986 174.609 90.4595 174.639 90.9194C174.629 91.268 174.69 91.6149 174.819 91.9389C174.948 92.2629 175.142 92.557 175.389 92.8032C175.924 93.3266 176.557 93.7396 177.251 94.0189C177.993 94.3292 179.039 94.687 180.388 95.0922C181.925 95.5228 183.429 96.0645 184.887 96.7131C186.067 97.2692 187.095 98.1035 187.883 99.1444C188.768 100.381 189.21 101.88 189.138 103.399C189.147 104.885 188.742 106.345 187.969 107.613C187.139 108.953 185.945 110.028 184.527 110.714C182.847 111.522 180.999 111.918 179.136 111.869ZM207.153 111.869C204.603 111.893 202.091 111.251 199.866 110.005C197.679 108.788 195.86 107.004 194.602 104.839C193.289 102.57 192.617 99.9867 192.659 97.365C192.62 94.7557 193.292 92.1851 194.602 89.9289C195.86 87.7639 197.678 85.9789 199.866 84.7619C202.104 83.539 204.613 82.8981 207.163 82.8981C209.713 82.8981 212.222 83.539 214.461 84.7619C216.636 85.9804 218.441 87.766 219.684 89.9289C220.981 92.1894 221.645 94.7584 221.606 97.365C221.648 99.984 220.984 102.566 219.684 104.839C218.437 107.005 216.625 108.791 214.441 110.005C212.215 111.251 209.703 111.893 207.153 111.869ZM207.153 106.804C208.728 106.836 210.282 106.437 211.647 105.649C212.957 104.865 214.011 103.718 214.684 102.346C215.439 100.796 215.814 99.0871 215.777 97.3623C215.816 95.6438 215.441 93.9411 214.684 92.398C214.01 91.0386 212.955 89.9052 211.647 89.1365C210.278 88.3611 208.726 87.9691 207.153 88.0019C205.574 87.971 204.016 88.3627 202.639 89.1365C201.322 89.9 200.258 91.0342 199.58 92.398C198.823 93.9411 198.448 95.6438 198.487 97.3623C198.45 99.0871 198.825 100.796 199.58 102.346C200.257 103.722 201.32 104.87 202.639 105.649C204.012 106.436 205.572 106.835 207.153 106.804ZM224.441 97.4029C224.399 94.789 225.048 92.2104 226.323 89.9289C227.532 87.7733 229.312 85.9927 231.465 84.7826C233.698 83.538 236.218 82.9021 238.773 82.9385C241.723 82.8771 244.621 83.7259 247.073 85.3698C249.444 86.9849 251.199 89.3557 252.053 92.0963H245.535C244.959 90.8253 244.005 89.7637 242.803 89.0572C241.56 88.3645 240.156 88.0148 238.734 88.0442C237.192 88.0164 235.671 88.4159 234.342 89.1986C233.052 89.9769 232.012 91.1091 231.346 92.461C230.6 94.0001 230.233 95.6949 230.273 97.4047C230.237 99.1074 230.605 100.794 231.346 102.328C232.008 103.688 233.048 104.827 234.342 105.61C235.671 106.393 237.192 106.793 238.734 106.765C240.159 106.795 241.564 106.438 242.803 105.732C244.003 105.014 244.956 103.946 245.535 102.671H252.053C251.214 105.418 249.465 107.798 247.094 109.418C244.633 111.055 241.729 111.897 238.775 111.829C236.219 111.866 233.699 111.23 231.467 109.985C229.318 108.779 227.539 107.006 226.326 104.859C225.048 102.585 224.397 100.012 224.441 97.4029ZM262.58 83.3014V111.585H256.912V83.3014H262.58ZM273.836 87.8803V94.9716H283.35V99.4694H273.836V106.966H284.565V111.585H268.167V83.2608H284.565V87.8803H273.836ZM308.938 83.3014V87.8803H301.407V111.585H295.739V87.8803H288.208V83.3014H308.938ZM335.538 83.3014L325.983 101.739V111.585H320.315V101.739L310.719 83.3014H317.116L323.189 96.2277L329.222 83.3014H335.538ZM361.571 111.869C359.021 111.893 356.509 111.251 354.283 110.005C352.097 108.788 350.278 107.004 349.02 104.839C347.707 102.57 347.035 99.9867 347.077 97.365C347.038 94.7557 347.71 92.1851 349.02 89.9289C350.278 87.7639 352.096 85.9789 354.283 84.7619C356.522 83.539 359.031 82.8981 361.581 82.8981C364.131 82.8981 366.64 83.539 368.879 84.7619C371.054 85.9804 372.859 87.766 374.101 89.9289C375.399 92.1894 376.063 94.7584 376.024 97.365C376.066 99.984 375.402 102.566 374.101 104.839C372.855 107.005 371.043 108.791 368.859 110.005C366.633 111.251 364.121 111.893 361.571 111.869ZM361.571 106.804C363.146 106.836 364.7 106.437 366.065 105.649C367.375 104.865 368.429 103.718 369.102 102.346C369.857 100.796 370.232 99.0871 370.195 97.3623C370.234 95.6438 369.859 93.9411 369.102 92.398C368.428 91.0386 367.373 89.9052 366.065 89.1365C364.696 88.3611 363.144 87.9691 361.571 88.0019C359.992 87.9708 358.433 88.3625 357.056 89.1365C355.739 89.9 354.676 91.0342 353.997 92.398C353.24 93.9411 352.865 95.6438 352.904 97.3623C352.867 99.0871 353.242 100.796 353.997 102.346C354.674 103.722 355.737 104.87 357.056 105.649C358.429 106.436 359.99 106.835 361.571 106.804ZM397.686 83.3014V87.8803H385.904V95.1336H394.933V99.6315H385.904V111.585H380.236V83.3014H397.686ZM436.715 83.3014L426.351 111.585H419.468L409.103 83.3014H415.176L422.95 105.791L430.687 83.3014H436.715ZM445.784 83.3014V111.585H440.116V83.3014H445.784ZM449.995 97.4029C449.953 94.789 450.602 92.2104 451.877 89.9289C453.086 87.7733 454.865 85.9927 457.019 84.7826C459.252 83.538 461.771 82.9021 464.327 82.9385C467.277 82.8771 470.175 83.7259 472.627 85.3698C474.998 86.9849 476.753 89.3557 477.606 92.0963H471.088C470.512 90.8253 469.558 89.7637 468.356 89.0572C467.113 88.3643 465.708 88.0147 464.286 88.0442C462.743 88.0155 461.222 88.4144 459.892 89.1968C458.602 89.9751 457.562 91.1073 456.896 92.4592C456.15 93.9982 455.782 95.693 455.823 97.4029C455.787 99.1056 456.155 100.793 456.896 102.326C457.558 103.686 458.598 104.826 459.892 105.608C461.222 106.391 462.742 106.791 464.284 106.763C465.709 106.793 467.115 106.436 468.354 105.73C469.555 105.012 470.508 103.944 471.086 102.669H477.605C476.765 105.417 475.016 107.796 472.645 109.416C470.183 111.053 467.279 111.895 464.325 111.828C461.77 111.864 459.25 111.228 457.017 109.983C454.868 108.777 453.089 107.004 451.876 104.857C450.599 102.583 449.95 100.011 449.995 97.4029ZM501.697 83.3014V87.8803H494.167V111.585H488.498V87.8803H480.968V83.3014H501.697ZM518.945 111.869C516.395 111.893 513.883 111.251 511.657 110.005C509.47 108.788 507.652 107.004 506.394 104.839C505.081 102.57 504.409 99.9867 504.45 97.365C504.412 94.7557 505.084 92.1851 506.394 89.9289C507.652 87.7639 509.47 85.9789 511.657 84.7619C513.895 83.5388 516.405 82.8978 518.955 82.8978C521.505 82.8978 524.015 83.5388 526.253 84.7619C528.427 85.9811 530.23 87.7666 531.471 89.9289C532.769 92.1893 533.434 94.7583 533.395 97.365C533.437 99.9841 532.772 102.566 531.471 104.839C530.225 107.005 528.413 108.791 526.229 110.005C524.004 111.25 521.493 111.893 518.945 111.869ZM518.945 106.804C520.52 106.836 522.074 106.437 523.439 105.649C524.748 104.865 525.803 103.718 526.475 102.346C527.231 100.796 527.606 99.0871 527.568 97.3623C527.607 95.6438 527.232 93.9411 526.475 92.398C525.801 91.0386 524.746 89.9052 523.439 89.1365C522.07 88.3611 520.517 87.9691 518.945 88.0019C517.366 87.971 515.808 88.3627 514.431 89.1365C513.114 89.9 512.05 91.0342 511.372 92.398C510.615 93.9411 510.24 95.6438 510.279 97.3623C510.241 99.0871 510.616 100.796 511.372 102.346C512.049 103.722 513.112 104.87 514.431 105.649C515.803 106.436 517.363 106.835 518.945 106.804ZM552.185 111.585L545.95 100.564H543.278V111.585H537.609V83.3014H548.217C550.144 83.2458 552.057 83.6411 553.804 84.4558C555.24 85.1322 556.444 86.2176 557.265 87.5759C558.041 88.9095 558.44 90.4291 558.42 91.9721C558.436 93.7835 557.868 95.5519 556.8 97.0147C555.611 98.586 553.904 99.6843 551.982 100.114L558.744 111.585H552.185ZM543.278 96.3088H548.015C549.263 96.4085 550.501 96.0086 551.456 95.1967C551.847 94.7851 552.149 94.2976 552.344 93.7643C552.539 93.231 552.623 92.6633 552.59 92.0963C552.624 91.541 552.54 90.9848 552.345 90.4639C552.149 89.943 551.847 89.4692 551.456 89.0734C550.489 88.2858 549.257 87.9011 548.015 87.9992H543.278V96.3088ZM569.23 83.3014V111.585H563.562V83.3014H569.23ZM592.145 106.196H580.89L579.028 111.585H573.076L583.243 83.2608H589.842L600 111.585H594.008L592.145 106.196ZM590.607 101.658L586.518 89.8253L582.433 101.658H590.607Z" fill="#020044"/>
<path d="M44.0979 57.6769C46.0562 57.4406 47.9957 57.0622 49.9468 56.7629C52.89 56.2406 55.8923 56.1389 58.864 56.461C59.1568 56.5482 59.4342 56.6804 59.6864 56.8528C55.9395 57.7359 52.4541 59.4911 49.5136 61.9756C49.8956 61.8866 50.255 61.7198 50.5697 61.4858C52.7969 59.9367 55.2459 58.7338 57.8332 57.9178C59.2649 57.4523 60.3371 57.5583 61.332 58.8633C62.3952 60.259 62.6324 60.9681 61.8919 62.6065C61.6968 63.0388 61.4218 63.4351 61.2421 63.8719C59.9003 67.119 58.3976 70.3158 57.3128 73.6483C56.8001 75.5069 56.6089 77.4394 56.7475 79.3624C56.8172 82.1312 57.0966 84.8907 57.5834 87.6173C58.2511 91.1717 59.4222 94.6274 59.3251 98.3122C59.3883 98.8503 59.2591 99.3935 58.9605 99.8457C58.6618 100.298 58.2128 100.63 57.693 100.783C57.1186 100.981 56.5935 101.301 56.1535 101.72C55.8173 101.987 55.5722 102.352 55.4519 102.764C55.3315 103.176 55.3417 103.616 55.4812 104.022C55.7994 104.838 56.5166 104.972 57.3263 104.957C58.1684 104.942 59.0141 105.092 59.8562 105.07C61.2169 105.036 62.6531 105.632 63.8915 104.584C64.4533 105.961 65.1039 106.207 66.8574 105.897C67.4397 105.761 68.0469 105.775 68.6225 105.937C68.9644 106.12 69.353 106.196 69.7386 106.156C70.1241 106.116 70.4891 105.962 70.7866 105.714C71.5191 105.095 71.2692 104.316 71.1802 103.551C71.0067 102.844 70.952 102.113 71.0185 101.388C71.3061 100.189 71.9055 99.068 72.2632 97.8826C72.9256 95.6843 73.4316 93.4383 74.138 91.2553C75.9525 85.6445 79.8539 82.2923 85.5519 80.955C87.6734 80.5211 89.8806 80.901 91.7351 82.0191C91.6467 82.0581 91.5545 82.0882 91.4601 82.1089C91.3585 82.1136 91.2566 82.1072 91.1563 82.0901C87.7145 81.4783 84.1685 82.1862 81.2254 84.0727C75.5409 87.5894 72.8402 95.1217 75.3836 101.302C75.4687 101.449 75.523 101.611 75.5433 101.779C75.5636 101.948 75.5493 102.118 75.5015 102.281C75.4536 102.443 75.3732 102.594 75.265 102.725C75.1568 102.855 75.0232 102.962 74.8722 103.039C74.266 103.317 73.6101 103.47 72.9436 103.489C71.9855 103.572 71.6853 104.095 71.6611 104.969C71.6368 105.844 72.3001 105.805 72.8294 105.9C73.2674 105.953 73.7092 105.967 74.1497 105.941C79.5025 105.941 84.855 105.945 90.2073 105.952C90.4231 105.985 90.6331 106.049 90.831 106.141C90.7287 106.357 90.5997 106.56 90.4472 106.744C89.0508 107.801 87.3386 108.355 85.5878 108.318C82.8567 108.355 80.1287 108.117 77.4453 107.608C73.6577 106.849 69.7232 107.572 66.4529 109.628C64.8007 110.661 63.5124 112.184 62.7681 113.984C62.6962 114.262 62.6865 114.552 62.7396 114.834C62.7928 115.116 62.9074 115.382 63.0755 115.615C63.2552 115.848 64.0767 115.774 64.5027 115.592C65.2073 115.288 65.796 114.723 66.488 114.377C67.728 113.644 69.0479 113.055 70.4217 112.622C73.1053 111.993 75.7332 112.795 78.2928 113.531C81.2928 114.397 84.4308 114.68 87.5372 114.364C90.8813 114.033 93.5874 112.233 96.1281 110.14C97.5836 108.96 98.6229 107.345 99.0939 105.532C99.3378 104.614 99.7798 103.76 100.389 103.031C102.461 100.56 103.977 97.6706 104.833 94.5609C105.801 91.0917 106.131 87.4755 105.807 83.8884C105.66 81.5293 105.461 79.1557 104.286 77.0068C103.279 75.0204 102.022 73.1711 100.545 71.5039C98.8036 69.6435 97.1581 67.7041 94.9544 66.391C92.4972 64.9279 89.9547 63.605 87.4733 62.185C85.8997 61.2809 84.353 60.3273 82.8269 59.3432C82.4774 59.1217 82.2183 58.7829 82.0959 58.3877C81.9735 57.9924 81.996 57.5665 82.1591 57.1862C82.4485 56.221 83.1621 56.1509 83.9962 56.2578C86.6204 56.5988 89.1663 57.3892 91.5221 58.5945C92.136 58.9046 92.7588 59.1967 93.378 59.4933C93.4184 59.3917 93.458 59.2884 93.4975 59.1868C90.344 57.1984 86.7761 55.9606 83.0687 55.5685C83.3652 55.2291 83.7491 54.9773 84.1786 54.8406C88.1526 54.1019 92.2105 53.9228 96.2342 54.3085C96.8192 54.3454 97.4025 54.3849 97.9921 54.4235C97.9921 54.3265 97.9921 54.2294 97.9921 54.1333C93.2479 53.5162 88.4379 53.6146 83.7229 54.4253C83.9305 52.9182 83.9099 52.8615 85.1933 52.3951C87.0357 51.7255 88.9113 51.1513 90.7708 50.532C90.9559 50.47 91.1303 50.3739 91.31 50.2939C91.2696 50.1815 91.2291 50.0692 91.1896 49.9577L84.1489 52.2163C83.9361 49.8691 83.2181 47.5958 82.0441 45.5522C81.8734 45.2691 81.9965 44.7882 82.0342 44.4036C82.2365 43.2799 82.3519 42.1424 82.3793 41.001C82.2706 39.0831 81.9237 37.1787 81.7143 35.2653C81.6028 34.2542 81.1049 33.9442 80.3257 34.558C78.4896 36.005 76.7057 37.5175 74.8758 38.9717C74.5825 39.2053 74.2208 39.3366 73.8459 39.3455C71.6832 39.1367 69.5006 39.3591 67.4245 39.9998C67.2539 40.0494 67.0751 40.0635 66.8989 40.0414C66.7227 40.0193 66.5529 39.9614 66.3999 39.8713C64.775 38.7766 63.2148 37.5849 61.5746 36.5154C60.7478 36.054 59.8895 35.6516 59.006 35.3111C58.2691 39.0786 58.2062 42.5243 59.4177 45.909C59.5056 46.1717 59.5346 46.4506 59.5026 46.7259C59.4706 47.0011 59.3784 47.2659 59.2325 47.5015C58.7304 48.5651 58.3679 49.6891 58.154 50.8457C58.0539 51.8649 58.0416 52.8908 58.1172 53.9122L50.5499 52.556C50.5364 52.6459 50.522 52.7357 50.5094 52.8202C52.7419 53.2822 54.9716 53.7603 57.2104 54.1953C58.2385 54.3948 58.9485 54.8406 58.9818 56.0323C53.9619 55.7253 48.9266 56.2822 44.0952 57.6787M64.8109 101.074C65.2964 96.4011 65.1601 91.6845 64.4056 87.0475C67.0695 91.6849 67.2717 98.109 64.8109 101.074ZM71.2063 58.5703C70.7833 58.4887 70.3464 58.5153 69.9364 58.6476C69.2542 58.8484 68.5556 58.9885 67.8487 59.0664C68.7249 58.493 69.5886 57.898 70.4864 57.3642C70.6311 57.2743 70.9277 57.4028 71.1389 57.4729C72.2039 57.8243 73.2635 58.1919 74.3537 58.5586C73.3321 58.8906 72.2322 58.8947 71.2081 58.5703M74.9172 48.1378C76.6436 47.2391 78.1571 47.9707 79.5474 48.9269C79.2275 49.2397 78.8365 49.4437 78.7386 49.7429C78.1337 51.6492 76.2284 51.8631 74.7482 51.4326C74.2665 51.2924 73.7596 51.2366 73.1431 51.1189C73.1478 50.5098 73.3143 49.9128 73.6253 49.389C73.9364 48.8653 74.381 48.4335 74.9136 48.1378M68.8022 55.4175L72.6173 55.0023L72.7674 55.3618C72.0484 55.8759 71.3789 56.647 70.5844 56.816C70.0452 56.9301 69.3343 56.1922 68.6971 55.8354L68.8022 55.4175ZM66.5113 48.864C67.7273 49.4113 68.0077 50.5949 68.0482 51.9197C66.905 52.0338 65.6908 52.4814 64.7408 52.1569C63.7909 51.8325 63.1177 50.7351 62.2307 49.8894C63.6489 49.166 64.917 48.1486 66.5122 48.8667M75.061 50.949C74.8429 50.8224 74.6657 50.6358 74.5504 50.4116C74.4351 50.1873 74.3865 49.9347 74.4103 49.6836C74.4759 49.4347 74.606 49.2075 74.7874 49.0249C74.9689 48.8424 75.1953 48.7109 75.4438 48.6438C76.1871 48.3742 76.5996 48.9916 76.2931 49.8903L75.5265 49.4194C75.6514 50.2193 75.8492 51.0713 76.605 50.8502C77.6835 50.5338 77.4471 49.4895 77.1874 48.589L77.4327 48.4838C77.6862 48.8182 78.1948 49.2073 78.1373 49.4724C78.0196 50.0117 77.696 50.7486 77.27 50.9104C76.9332 51.0965 76.556 51.1973 76.1712 51.2041C75.7865 51.2108 75.4059 51.1233 75.0628 50.949M63.808 50.5428C63.7901 50.4147 63.8055 50.2842 63.8527 50.1637C63.8999 50.0433 63.9774 49.9371 64.0776 49.8553C64.4049 49.654 64.7905 49.5685 65.1722 49.6126C65.3852 49.6612 65.5039 50.1276 65.6647 50.4062L65.4706 50.5644L64.7651 50.2561C64.8123 50.5275 64.8904 50.7925 64.9979 51.0461C65.2035 51.3122 65.4951 51.4986 65.8229 51.5737C66.2186 51.0505 66.5852 50.5059 66.9212 49.9425C66.9463 50.4278 67.1405 50.9706 66.9535 51.2906C66.7577 51.6137 66.4486 51.8524 66.0864 51.9602C65.7243 52.068 65.335 52.0373 64.9943 51.8738C64.4937 51.6608 63.8107 51.1162 63.8107 50.5383M74.9999 2.15491e-08C60.1662 -0.000355485 45.6655 4.39801 33.3316 12.6389C20.9977 20.8798 11.3845 32.5931 5.70763 46.2975C0.0307832 60.0019 -1.45472 75.082 1.43897 89.6306C4.33265 104.179 11.4756 117.543 21.9644 128.032C32.4533 138.521 45.817 145.665 60.3656 148.559C74.9143 151.453 89.9943 149.968 103.699 144.291C117.403 138.615 129.117 129.002 137.358 116.668C145.599 104.334 149.998 89.8336 149.998 75C149.975 55.116 142.067 36.0529 128.007 21.9926C113.947 7.9323 94.8838 0.0230732 74.9999 2.15491e-08ZM74.9999 147.032C60.7529 147.033 46.8259 142.808 34.98 134.893C23.134 126.978 13.9012 115.728 8.44907 102.565C2.99693 89.403 1.57035 74.9195 4.34974 60.9463C7.12914 46.9731 13.9897 34.138 24.0637 24.0639C34.1378 13.9898 46.973 7.12926 60.9462 4.34987C74.9194 1.57048 89.4029 2.99705 102.565 8.44919C115.728 13.9013 126.978 23.1342 134.893 34.9801C142.808 46.826 147.032 60.7531 147.032 75C147.01 94.0974 139.414 112.406 125.91 125.91C112.406 139.414 94.0972 147.01 74.9999 147.032ZM132.159 81.8097L136.355 80.9172L136.038 83.6341L132.159 81.8097ZM120.238 41.9707C119.174 40.5166 119.536 38.8404 121.106 37.6919C122.701 36.5235 124.382 36.7033 125.447 38.1619C126.493 39.5909 126.166 41.2607 124.57 42.4273C123 43.5759 121.285 43.4006 120.238 41.9707ZM74.9999 4.90797C61.1371 4.90797 47.5857 9.01874 36.0593 16.7205C24.5329 24.4222 15.5491 35.3689 10.2441 48.1764C4.93908 60.9838 3.55105 75.0768 6.25553 88.6732C8.96001 102.27 15.6355 114.759 25.438 124.561C35.2404 134.363 47.7294 141.039 61.3258 143.743C74.9221 146.448 89.0151 145.06 101.823 139.755C114.63 134.45 125.577 125.466 133.278 113.94C140.98 102.413 145.091 88.8618 145.091 74.9991C145.091 56.4098 137.706 38.582 124.562 25.4374C111.417 12.2929 93.5891 4.90821 74.9999 4.90797ZM133.45 46.9955L128.956 53.8987L135.259 51.1378L136.337 53.6174L126.159 58.0661L125.075 55.5865L129.541 48.6959L123.263 51.4398L122.179 48.9611L132.358 44.5123L133.45 46.9955ZM127.424 36.7149C128.083 37.6249 128.458 38.7099 128.501 39.8328C128.544 40.9557 128.253 42.0661 127.666 43.0239C127.078 43.9817 126.219 44.7439 125.199 45.2141C124.178 45.6844 123.041 45.8416 121.931 45.6661C120.821 45.4905 119.788 44.9899 118.963 44.2276C118.137 43.4653 117.556 42.4754 117.293 41.383C117.029 40.2906 117.096 39.1446 117.483 38.0899C117.871 37.0351 118.562 36.1188 119.47 35.4567C120.067 34.9957 120.751 34.6615 121.482 34.4746C122.212 34.2877 122.973 34.2521 123.718 34.3699C124.463 34.4877 125.176 34.7565 125.813 35.1598C126.45 35.563 126.998 36.0922 127.424 36.7149ZM121.73 30.1452L113.882 38.0037L111.968 36.0921L119.816 28.2336L121.73 30.1452ZM111.165 21.1013L117.965 26.3526L116.64 28.0683L114.311 26.2708L108.847 33.3474L106.705 31.6928L112.17 24.6189L109.84 22.8215L111.165 21.1013ZM104.13 17.0121C105.225 17.4911 106.12 18.3356 106.661 19.4012C107.202 20.4668 107.356 21.6873 107.096 22.8538L104.432 21.5174C104.449 21.0325 104.322 20.5535 104.066 20.1414C103.81 19.7293 103.437 19.4027 102.994 19.2032C101.511 18.459 99.9387 19.0513 99.0616 20.8029C98.1844 22.5545 98.6464 24.1696 100.131 24.9137C100.555 25.1491 101.04 25.253 101.524 25.2122C102.008 25.1714 102.468 24.9877 102.847 24.6845L105.504 26.0174C104.724 26.92 103.655 27.5236 102.48 27.7247C101.304 27.9259 100.095 27.7122 99.0598 27.1201C98.3798 26.8113 97.7716 26.3644 97.2738 25.8077C96.7759 25.2511 96.3994 24.5969 96.1681 23.8868C95.9368 23.1768 95.8559 22.4263 95.9304 21.6833C96.0049 20.9402 96.2332 20.2208 96.6009 19.5708C96.9018 18.8864 97.3419 18.2721 97.893 17.7669C98.4441 17.2616 99.0942 16.8765 99.8021 16.636C100.51 16.3955 101.26 16.3048 102.005 16.3697C102.75 16.4346 103.473 16.6536 104.129 17.013M96.1641 13.6877L95.5691 15.7709L91.63 14.6493L91.0134 16.8063L94.4969 17.8012L93.9235 19.808L90.44 18.8131L89.7705 21.1552L93.7096 22.2804L93.1147 24.3637L86.5764 22.4952L89.6258 11.8201L96.1641 13.6877ZM78.2605 10.1763L86.7984 11.1649L86.5486 13.3219L83.6241 12.9831L82.5932 21.8634L79.9051 21.5507L80.9342 12.6721L78.0097 12.3306L78.2605 10.1763ZM69.8241 10.2905C70.5714 10.2112 71.3271 10.285 72.0451 10.5073C72.763 10.7296 73.4281 11.0957 74 11.5834C74.5718 12.0712 75.0383 12.6702 75.371 13.3441C75.7038 14.018 75.8958 14.7526 75.9354 15.5031C76.0013 16.252 75.9181 17.0066 75.6907 17.7232C75.4634 18.4398 75.0964 19.1043 74.6109 19.6783C74.1253 20.2524 73.5309 20.7245 72.862 21.0676C72.193 21.4107 71.4627 21.6179 70.7132 21.6772C69.9637 21.7366 69.2099 21.6469 68.4953 21.4134C67.7807 21.1798 67.1194 20.8071 66.5496 20.3166C65.9798 19.8261 65.5128 19.2277 65.1755 18.5558C64.8382 17.8839 64.6373 17.1518 64.5845 16.4018C64.5105 15.6531 64.589 14.8971 64.8152 14.1795C65.0413 13.4619 65.4105 12.7976 65.9003 12.2265C66.3902 11.6554 66.9906 11.1895 67.6654 10.8567C68.3403 10.524 69.0755 10.3314 69.8268 10.2905M57.1547 12.7422C59.7655 11.9792 61.509 13.1017 62.0509 14.9522C62.2734 15.6544 62.2491 16.4116 61.9822 17.0981C61.7153 17.7846 61.2217 18.3593 60.5833 18.7269L64.2753 22.2319L61.3454 23.0875L57.9554 19.7137L57.3326 19.8934L58.501 23.9062L55.9063 24.6648L52.7931 14.0139L57.1547 12.7422ZM46.2009 16.986C48.6275 15.7583 50.5364 16.5133 51.4558 18.3341C52.2844 19.9725 51.9393 22.062 49.4112 23.3391L47.9139 24.095L49.7114 27.6548L47.2956 28.8753L42.2897 18.9632L46.2009 16.986ZM74.9999 24.8167C84.9259 24.8167 94.629 27.7601 102.882 33.2748C111.135 38.7894 117.568 46.6276 121.366 55.7981C125.164 64.9687 126.158 75.0596 124.221 84.7948C122.285 94.53 117.504 103.472 110.485 110.491C103.466 117.509 94.5238 122.289 84.7885 124.225C75.0531 126.161 64.9622 125.167 55.792 121.367C46.6218 117.568 38.784 111.135 33.27 102.882C27.7559 94.6284 24.8131 84.9251 24.8138 74.9991C24.8138 61.6889 30.1013 48.9239 39.513 39.5122C48.9247 30.1005 61.6897 24.8131 74.9999 24.8131M33.1729 25.3855L34.6756 26.9457L32.5564 28.9859L38.7576 35.4217L36.8056 37.2973L30.6044 30.8615L28.4896 32.9007L26.987 31.3405L33.1729 25.3855ZM23.0218 36.3357L34.4087 39.4741L32.7541 41.8108L30.7688 41.2203L28.3737 44.6031L29.5897 46.2801L27.954 48.5917L21.2099 38.8926L23.0218 36.3357ZM15.2927 49.5767C15.7025 48.4549 16.489 47.5102 17.5178 46.9037C18.5466 46.2972 19.7541 46.0667 20.934 46.2514L19.772 48.988C19.2866 49.0021 18.8164 49.1601 18.4211 49.4421C18.0259 49.7241 17.7234 50.1172 17.5521 50.5716C16.9023 52.0994 17.5925 53.6273 19.399 54.3984C21.2054 55.1695 22.7845 54.5988 23.4343 53.0709C23.6426 52.6324 23.7157 52.1418 23.6441 51.6617C23.5726 51.1815 23.3597 50.7335 23.0325 50.3748L24.1919 47.6327C25.142 48.354 25.812 49.3831 26.0871 50.5438C26.3622 51.7045 26.2253 52.9248 25.7 53.9957C25.4348 54.6941 25.0271 55.3297 24.5028 55.8619C23.9785 56.3941 23.3492 56.8113 22.6549 57.087C21.9606 57.3627 21.2165 57.4908 20.4699 57.4631C19.7234 57.4355 18.9908 57.2528 18.3187 56.9265C17.6163 56.6695 16.975 56.2692 16.4356 55.751C15.8962 55.2328 15.4705 54.6081 15.1856 53.9165C14.9007 53.225 14.7627 52.4817 14.7805 51.7339C14.7984 50.9862 14.9715 50.2503 15.2891 49.5731M9.59742 82.0667C9.34937 79.6905 10.3362 77.7106 12.5632 77.3978L12.8625 80.262C12.688 80.2809 12.5192 80.3356 12.3668 80.4227C12.2144 80.5098 12.0816 80.6275 11.9768 80.7683C11.872 80.9091 11.7975 81.0701 11.7578 81.2411C11.7181 81.4121 11.7142 81.5894 11.7463 81.762C11.8281 82.5493 12.2738 83.0122 12.9209 82.9448C14.9655 82.73 13.2876 77.3223 17.2088 76.9439C19.301 76.7255 20.6446 78.319 20.8855 80.6287C21.138 83.0364 20.1117 84.7827 18.014 85.1125L17.7103 82.2015C17.8694 82.1787 18.0224 82.1243 18.1601 82.0414C18.2979 81.9585 18.4176 81.8488 18.5123 81.7189C18.6069 81.589 18.6746 81.4414 18.7113 81.2849C18.748 81.1283 18.7529 80.966 18.7258 80.8076C18.7331 80.6621 18.7081 80.5167 18.6527 80.382C18.5972 80.2472 18.5126 80.1264 18.405 80.0282C18.2974 79.9299 18.1694 79.8567 18.0302 79.8137C17.891 79.7707 17.744 79.759 17.5997 79.7794C15.6809 79.9798 17.1162 85.3516 13.4188 85.7362C11.562 85.9303 9.86794 84.6425 9.59832 82.0631M12.0968 94.2858C11.8604 93.5704 11.7711 92.8146 11.8342 92.0637C11.8974 91.3129 12.1117 90.5826 12.4643 89.9167C12.8169 89.2508 13.3004 88.6631 13.886 88.1889C14.4715 87.7146 15.1469 87.3637 15.8715 87.1571C16.9483 86.8273 18.0987 86.824 19.1774 87.1476C20.256 87.4713 21.2146 88.1074 21.9319 88.9756C22.6493 89.8438 23.0932 90.9051 23.2076 92.0255C23.322 93.1458 23.1018 94.275 22.5748 95.2703C22.0478 96.2655 21.2377 97.0823 20.2467 97.6174C19.2557 98.1524 18.1284 98.3818 17.0071 98.2764C15.8859 98.1711 14.821 97.7358 13.947 97.0255C13.0731 96.3152 12.4292 95.3619 12.0968 94.2858ZM17.6249 107.129C17.235 106.491 16.9821 105.78 16.8822 105.04C16.7822 104.299 16.8375 103.546 17.0444 102.829C17.2514 102.111 17.6055 101.444 18.0842 100.871C18.5629 100.297 19.1557 99.8295 19.825 99.4976C20.4583 99.0994 21.1676 98.8374 21.9076 98.7282C22.6477 98.6189 23.4024 98.6649 24.1238 98.8631C24.8451 99.0613 25.5173 99.4075 26.0977 99.8795C26.678 100.352 27.1538 100.939 27.4947 101.605C28.1316 102.616 28.3976 103.816 28.2475 105.001C28.0973 106.186 27.5402 107.281 26.6715 108.101L25.2192 105.506C25.5053 105.114 25.6683 104.646 25.6874 104.16C25.7064 103.675 25.5807 103.195 25.3261 102.782C24.5173 101.332 22.8816 100.941 21.1704 101.899C19.4592 102.857 18.9388 104.454 19.7495 105.904C19.9686 106.337 20.3117 106.695 20.735 106.933C21.1583 107.17 21.6428 107.276 22.1266 107.237L23.579 109.832C22.4271 110.142 21.2033 110.042 20.1171 109.549C19.031 109.056 18.1493 108.2 17.6249 107.129ZM23.7264 116.05L22.0781 113.907L30.8785 107.14L32.5267 109.283L23.7264 116.05ZM31.8401 121.708L30.2817 123.216L25.5454 118.33L33.5216 110.601L38.257 115.486L36.7004 116.995L33.8479 114.049L32.2356 115.613L34.7574 118.214L33.2529 119.668L30.7311 117.061L28.983 118.758L31.8401 121.708ZM47.9813 130.835L46.307 134.101L43.9011 132.868L45.5727 129.602L45.5422 121.26L44.3001 122.908L41.9508 121.137L36.5728 128.272L34.4159 126.644L39.7948 119.509L37.4428 117.734L38.7469 116.005L45.6033 121.174L45.5547 121.239L48.2716 122.63L48.0658 127.753L52.0858 124.587L54.7883 125.971L47.9813 130.835ZM71.4472 135.256C71.2795 136.371 70.7846 137.411 70.0253 138.244C69.266 139.077 68.2764 139.666 67.1819 139.936C66.0874 140.206 64.9374 140.146 63.8776 139.761C62.8178 139.377 61.896 138.687 61.2289 137.778C60.5619 136.869 60.1797 135.783 60.1307 134.657C60.0818 133.531 60.3684 132.415 60.9541 131.452C61.5398 130.489 62.3983 129.721 63.4208 129.246C64.4432 128.772 65.5836 128.611 66.6974 128.785C67.441 128.883 68.157 129.13 68.8025 129.512C69.448 129.894 70.0096 130.403 70.4534 131.007C70.8971 131.612 71.214 132.3 71.3848 133.03C71.5556 133.76 71.5768 134.518 71.4472 135.256ZM76.0307 134.068L79.4153 133.978L79.4728 136.081L76.0891 136.171L76.2131 140.665L73.5098 140.74L73.2033 129.641L80.4291 129.441L80.4893 131.607L75.966 131.733L76.0307 134.068ZM97.4744 136.746L94.2651 137.825L87.0051 128.547L89.7337 127.632L95.0056 134.705L94.967 125.879L97.6811 124.97L97.4744 136.746ZM103.199 134.34L98.2213 124.416L100.64 123.203L105.617 133.127L103.199 134.34ZM112.72 128.857C111.491 129.689 109.984 130.004 108.525 129.734C107.065 129.464 105.77 128.632 104.919 127.416C104.068 126.2 103.729 124.698 103.976 123.234C104.223 121.77 105.035 120.462 106.237 119.592C107.179 118.858 108.346 118.473 109.54 118.504C110.734 118.534 111.881 118.978 112.783 119.76L110.347 121.468C109.928 121.222 109.446 121.107 108.961 121.136C108.476 121.166 108.011 121.339 107.626 121.634C106.264 122.586 106.038 124.25 107.163 125.858C108.288 127.467 109.927 127.823 111.288 126.872C111.697 126.61 112.019 126.233 112.213 125.788C112.407 125.342 112.464 124.85 112.377 124.372L114.814 122.664C115.237 123.779 115.26 125.007 114.878 126.136C114.496 127.266 113.734 128.228 112.72 128.857ZM120.921 121.964L114.545 115.698L112.482 117.798L110.937 116.278L116.958 110.149L118.505 111.67L116.442 113.768L122.819 120.032L120.921 121.964ZM129.759 111.458C129.136 112.394 128.249 113.125 127.211 113.557C126.172 113.989 125.029 114.104 123.926 113.886C122.822 113.669 121.808 113.129 121.012 112.336C120.215 111.542 119.671 110.53 119.45 109.427C119.229 108.324 119.339 107.181 119.767 106.141C120.196 105.101 120.923 104.212 121.857 103.585C122.791 102.959 123.89 102.623 125.014 102.621C126.139 102.619 127.239 102.95 128.175 103.573C128.807 103.978 129.352 104.505 129.776 105.125C130.2 105.745 130.494 106.443 130.642 107.179C130.79 107.915 130.788 108.673 130.636 109.408C130.484 110.144 130.186 110.841 129.759 111.458ZM136.296 98.6582L131.541 99.1974L131.294 99.7978L135.167 101.397L134.135 103.893L123.874 99.6576L125.605 95.4614C126.643 92.9449 128.609 92.288 130.393 93.0231C131.079 93.2897 131.654 93.7822 132.022 94.4195C132.391 95.0567 132.531 95.8005 132.42 96.5282L137.461 95.838L136.296 98.6582ZM138.125 93.211L127.395 90.3611L128.089 87.7467L138.818 90.5966L138.125 93.211ZM139.894 85.4729L139.564 88.285L129.006 83.0032L129.371 79.8945L140.864 77.1983L140.531 80.041L138.506 80.4733L138.024 84.5885L139.894 85.4729ZM67.34 16.1807C67.1836 14.2098 68.2198 12.8743 70.0173 12.7323C71.7833 12.5912 73.0325 13.7461 73.1889 15.717C73.3435 17.6547 72.2902 19.0234 70.5269 19.1636C68.7294 19.3056 67.4946 18.1193 67.34 16.1807ZM68.7249 134.833C68.4292 136.756 67.0946 137.846 65.3439 137.579C63.5626 137.309 62.6306 135.867 62.9263 133.944C63.2265 131.989 64.544 130.927 66.3226 131.2C68.0733 131.47 69.0251 132.88 68.7249 134.833ZM28.6622 40.5813L27.0804 42.8155L24.5487 39.3554L28.6622 40.5813ZM18.4014 95.4182C16.5392 95.988 14.9754 95.2583 14.456 93.5633C13.9284 91.8377 14.8208 90.3728 16.6812 89.803C18.5739 89.2242 20.1009 89.9486 20.6302 91.6732C21.1479 93.3682 20.2923 94.8386 18.4005 95.4173M127.71 110.087C126.709 111.586 125.013 111.823 123.396 110.743C121.751 109.645 121.344 108.004 122.346 106.505C123.329 105.032 125.01 104.764 126.654 105.861C128.271 106.94 128.696 108.614 127.712 110.086M130.17 97.5096L129.53 99.0599L126.986 98.0093L127.627 96.4599C127.686 96.2796 127.782 96.1134 127.908 95.9718C128.035 95.8302 128.189 95.7162 128.361 95.6369C128.534 95.5576 128.72 95.5147 128.91 95.5109C129.1 95.5072 129.288 95.5426 129.464 95.615C129.639 95.6874 129.798 95.7952 129.93 95.9317C130.062 96.0682 130.164 96.2304 130.23 96.4083C130.296 96.5861 130.325 96.7757 130.315 96.9652C130.305 97.1547 130.255 97.34 130.17 97.5096ZM56.7898 18.0519L56.0187 15.4114L57.6274 14.9405C57.8025 14.858 57.9939 14.8159 58.1875 14.8175C58.381 14.8191 58.5718 14.8642 58.7455 14.9496C58.9192 15.035 59.0715 15.1584 59.1909 15.3107C59.3104 15.463 59.3941 15.6403 59.4356 15.8293C59.5077 16.012 59.5371 16.2088 59.5215 16.4046C59.506 16.6004 59.4458 16.79 59.3458 16.959C59.2457 17.128 59.1083 17.2719 58.9442 17.3797C58.78 17.4875 58.5933 17.5563 58.3985 17.581L56.7898 18.0519ZM48.2617 21.5084L46.9487 22.1717L45.6905 19.6858L47.0035 19.0225C47.1683 18.9185 47.353 18.8501 47.5458 18.8216C47.7386 18.7931 47.9352 18.8052 48.1231 18.8571C48.3109 18.909 48.4859 18.9996 48.6367 19.123C48.7875 19.2465 48.9108 19.4001 48.9989 19.574C49.0869 19.7478 49.1376 19.9382 49.1478 20.1328C49.1579 20.3274 49.1274 20.522 49.058 20.7042C48.9886 20.8863 48.8819 21.0519 48.7448 21.1904C48.6077 21.3289 48.4431 21.4372 48.2617 21.5084Z" fill="#020044"/>
</svg>
